# AST/ASF file generated using VICON BodyLanguage
# -----------------------------------------------
:version 1.10
:name VICON
:units
  mass 1.0
  length 0.45
  angle deg
:documentation
   .ast/.asf automatically generated from VICON data using
   VICON BodyBuilder and BodyLanguage model FoxedUp or BRILLIANT.MOD
:root
   order TX TY TZ RX RY RZ
   axis XYZ
   position 0 0 0  
   orientation 0 0 0 
:bonedata
  begin
     id 1 
     name lhipjoint
     direction 0.627457 -0.725269 0.283342 
     length 2.53237 
     axis 0 0 0  XYZ
  end
  begin
     id 2 
     name lfemur
     direction 0.34202 -0.939693 0  
     length 7.32496  
     axis 0 0 20  XYZ
    dof rx ry rz
    limits (-160.0 20.0)
           (-70.0 70.0)
           (-60.0 70.0)
  end
  begin
     id 3 
     name ltibia
     direction 0.34202 -0.939693 0   
     length 7.69674   
     axis 0 0 20   XYZ
    dof rx
    limits (-10.0 170.0)
  end
  begin
     id 4 
     name lfoot
     direction 0.127289 -0.349722 0.928166   
     length 1.8612   
     axis -90 7.62852e-016 20   XYZ
    dof rx rz
    limits (-45.0 90.0)
           (-70.0 20.0)
  end
  begin
     id 5 
     name ltoes
     direction 1.53561e-011 -4.21864e-011 1   
     length 0.925608   
     axis -90 7.62852e-016 20   XYZ
    dof rx
    limits (-90.0 20.0)
  end
  begin
     id 6 
     name rhipjoint
     direction -0.609094 -0.738725 0.288599   
     length 2.48624  
     axis 0 0 0  XYZ 
  end
  begin
     id 7 
     name rfemur
     direction -0.34202 -0.939693 0   
     length 7.44259   
     axis 0 0 -20   XYZ
    dof rx ry rz
    limits (-160.0 20.0)
           (-70.0 70.0)
           (-70.0 60.0)
  end
  begin
     id 8 
     name rtibia
     direction -0.34202 -0.939693 0   
     length 7.7781   
     axis 0 0 -20   XYZ
    dof rx
    limits (-10.0 170.0)
 end
 begin
     id 9 
     name rfoot
     direction -0.107015 -0.294021 0.949789   
     length 2.14741  
     axis -90 -7.62852e-016 -20   XYZ
    dof rx rz
    limits (-45.0 90.0)
           (-20.0 70.0)
  end
  begin
     id 10 
     name rtoes
     direction -1.53497e-011 -4.21924e-011 1   
     length 1.0706   
     axis -90 -7.62852e-016 -20   XYZ
    dof rx
    limits (-90.0 20.0)
  end
  begin
     id 11 
     name lowerback
     direction -0.0142066 0.998112 -0.0597545   
     length 1.86627   
     axis 0 0 0   XYZ
    dof rx ry rz
    limits (-20.0 45.0)
           (-30.0 30.0)
           (-30.0 30.0)
  end
  begin
     id 12 
     name upperback
     direction 0.00547294 0.999744 0.0219437   
     length 1.86272   
     axis 0 0 0   XYZ
    dof rx ry rz
    limits (-20.0 45.0)
           (-30.0 30.0)
           (-30.0 30.0)
  end
  begin
     id 13 
     name thorax
     direction 0.0116162 0.998704 0.0495538   
     length 1.8703   
     axis 0 0 0   XYZ
    dof rx ry rz
    limits (-20.0 45.0)
           (-30.0 30.0)
           (-30.0 30.0)
  end
  begin
     id 14 
     name lowerneck
     direction -0.0106574 0.998739 0.0490586   
     length 1.8074   
     axis 0 0 0   XYZ
    dof rx ry rz
    limits (-20.0 45.0)
           (-30.0 30.0)
           (-30.0 30.0)
  end
  begin
     id 15 
     name upperneck
     direction 0.030527 0.976587 -0.212944   
     length 1.80681   
     axis 0 0 0   XYZ
    dof rx ry rz
    limits (-20.0 45.0)
           (-30.0 30.0)
           (-30.0 30.0)
  end
  begin
     id 16
     name head
     direction 0.00869225 0.997035 -0.0764531  
     length 1.8313  
     axis 0 0 0   XYZ
    dof rx ry rz
    limits (-20.0 45.0)
           (-30.0 30.0)
           (-30.0 30.0)
  end
  begin
     id 17 
     name lclavicle
     direction 0.915958 0.399447 0.0382386  
     length 3.78965  
     axis 0 0 0   XYZ
    dof ry rz
    limits (-20.0 10.0)
           (0.0 20.0)
  end
  begin
     id 18 
     name lhumerus
     direction 1 -4.48967e-011 3.19303e-027   
     length 4.78095   
     axis -180 -30 -90   XYZ
    dof rx ry rz
    limits (-60.0 90.0)
           (-90.0 90.0)
           (-90.0 90.0)
  end
  begin
     id 19
     name lradius
     direction 1 -4.48967e-011 -3.77974e-027   
     length 3.58615   
     axis -180 -30 -90   XYZ
    dof rx
    limits (-10.0 170.0)
  end
  begin
     id 20
     name lwrist
     direction 1 -4.48927e-011 1.2807e-027   
     length 1.79307   
     axis 1.91374e-015 90 90   XYZ
    dof ry
    limits (-180.0 0.0)
 end
  begin
     id 21 
     name lhand
     direction 1 -4.49036e-011 2.5614e-027   
     length 0.659812   
     axis -1.63439e-015 90 90   XYZ
    dof rx rz
    limits (-90.0 90.0)
           (-45.0 45.0)
  end
  begin
     id 22 
     name lfingers
     direction 1 -4.49052e-011 5.1228e-027   
     length 0.531957   
     axis -3.26879e-015 90 90   XYZ
    dof rx
    limits (0.0 90.0)
  end
  begin
     id 23
     name lthumb
     direction 0.707107 -6.35012e-011 0.707107   
     length 0.763787   
     axis -90 45 2.85299e-015   XYZ
    dof rx rz
    limits (-45.0 45.0)
           (-45.0 45.0)
  end
  begin
     id 24 
     name rclavicle
     direction -0.895351 0.435135 0.0948887   
     length 3.70497  
     axis 0 0 0   XYZ 
    dof ry rz
    limits (-10.0 20.0)
           (-20.0 0.0)
  end
  begin
     id 25 
     name rhumerus
     direction -1 -4.48971e-011 2.38946e-027  
     length 4.48913   
     axis -180 30 90   XYZ
    dof rx ry rz
    limits (-90.0 60.0)
           (-90.0 90.0)
           (-90.0 90.0)
  end
  begin
     id 26 
     name rradius
     direction -1 -4.4895e-011 4.38668e-027   
     length 3.7051   
     axis -180 30 90   XYZ
    dof rx
    limits (-10.0 170.0)
  end
  begin
     id 27 
     name rwrist
     direction -1 -4.49007e-011 1.2807e-027   
     length 1.85255   
     axis 1.91374e-015 -90 -90   XYZ
    dof ry
    limits (-180.0 0.0)
  end
  begin
     id 28
     name rhand
     direction -1 -4.48851e-011 2.5614e-027   
     length 0.449136   
     axis -1.63439e-015 -90 -90   XYZ
    dof rx rz
    limits (-90.0 90.0)
           (-45.0 45.0)
  end
  begin
     id 29
     name rfingers
     direction -1 -4.49128e-011 5.1228e-027   
     length 0.362105   
     axis -3.26879e-015 -90 -90   XYZ
    dof rx
    limits (0.0 90.0)
  end
  begin
     id 30
     name rthumb
     direction -0.707107 -6.34851e-011 0.707107   
     length 0.519912   
     axis -90 -45 -2.85299e-015   XYZ
    dof rx rz
    limits (-45.0 45.0)
           (-45.0 45.0)
  end
:hierarchy
  begin
    root lhipjoint rhipjoint lowerback
    lhipjoint lfemur
    lfemur ltibia
    ltibia lfoot
    lfoot ltoes
    rhipjoint rfemur
    rfemur rtibia
    rtibia rfoot
    rfoot rtoes
    lowerback upperback
    upperback thorax
    thorax lowerneck lclavicle rclavicle
    lowerneck upperneck
    upperneck head
    lclavicle lhumerus
    lhumerus lradius
    lradius lwrist
    lwrist lhand lthumb
    lhand lfingers
    rclavicle rhumerus
    rhumerus rradius
    rradius rwrist
    rwrist rhand rthumb
    rhand rfingers
  end

#!OML:ASF I:\Actors\actors\Patient Classification 2\Patient 1\Session 1\actor1.ASF
:FULLY-SPECIFIED
:DEGREES
1
root -0.800444 18.6626 6.19188 2.43906 -3.37572 -4.20006
lowerback 3.79985 0.815443 1.22635
upperback -0.931849 1.17011 0.720001
thorax -3.07924 0.566837 -0.0220977
lowerneck -8.63685 -1.27771 0.322788
upperneck 18.443 -2.25623 2.31929
head 7.08542 -0.863095 0.501415
rclavicle 7.40473e-015 -6.36111e-015
rhumerus -46.8007 -1.83759 -87.2927
rradius 41.3928
rwrist 14.3137
rhand 8.07723 -29.4635
rfingers 7.12502
rthumb 33.3005 -56.3999
lclavicle 7.40473e-015 -6.36111e-015
lhumerus -43.9249 -3.91933 92.1859
lradius 41.3647
lwrist 0.886285
lhand -1.838 -21.4057
lfingers 7.12502
lthumb 23.8288 7.13642
rfemur 7.37694 4.97209 18.7264
rtibia -6.36111e-015
rfoot -17.7483 -10.5837
rtoes -6.96795
lfemur -4.11926 -5.20083 -9.81503
ltibia 22.4173
lfoot -23.9512 12.884
ltoes -55.6869
2
root -0.800666 18.6631 6.19214 2.45586 -3.3868 -4.16702
lowerback 3.78998 0.820065 1.19737
upperback -0.933793 1.17429 0.706601
thorax -3.07592 0.569348 -0.0197622
lowerneck -8.61694 -1.28049 0.348239
upperneck 18.4256 -2.26111 2.30714
head 7.0759 -0.865126 0.492976
rclavicle 1.15916e-014 5.56597e-015
rhumerus -46.8225 -1.87601 -87.3019
rradius 41.4076
rwrist 14.3311
rhand 8.01743 -29.3993
rfingers 7.12502
rthumb 33.2436 -56.3478
lclavicle 1.15916e-014 5.56597e-015
lhumerus -43.9374 -4.00508 92.2186
lradius 41.4991
lwrist 0.87502
lhand -1.74448 -20.9526
lfingers 7.12502
lthumb 23.9184 7.57774
rfemur 7.35375 4.98148 18.6891
rtibia -1.43125e-014
rfoot -17.7383 -10.5842
rtoes -6.7933
lfemur -4.12538 -5.22764 -9.85505
ltibia 22.3953
lfoot -23.9178 12.9408
ltoes -55.7155
3
root -0.800709 18.6634 6.19264 2.47218 -3.39528 -4.13883
lowerback 3.77776 0.816431 1.16603
upperback -0.929633 1.16739 0.699023
thorax -3.06525 0.566494 -0.00933279
lowerneck -8.55531 -1.27431 0.39363
upperneck 18.3583 -2.25257 2.28239
head 7.04234 -0.861394 0.478622
rclavicle -2.59662e-015 0
rhumerus -46.8183 -1.85754 -87.3379
rradius 41.4129
rwrist 14.3268
rhand 8.00826 -29.3284
rfingers 7.12502
rthumb 33.2349 -56.2787
lclavicle -2.59662e-015 0
lhumerus -43.9318 -3.99689 92.1871
lradius 41.5112
lwrist 0.866561
lhand -1.68784 -20.9935
lfingers 7.12502
lthumb 23.9728 7.52972
rfemur 7.33262 4.98844 18.6572
rtibia -2.06736e-014
rfoot -17.7231 -10.6027
rtoes -6.91573
lfemur -4.14082 -5.24265 -9.88646
ltibia 22.3976
lfoot -23.9474 12.9165
ltoes -55.6242
4
root -0.799865 18.6637 6.19342 2.49606 -3.39622 -4.15061
lowerback 3.7412 0.807775 1.19208
upperback -0.921159 1.1564 0.700614
thorax -3.03555 0.560738 -0.0209429
lowerneck -8.48179 -1.27408 0.417441
upperneck 18.2788 -2.25234 2.27946
head 7.0033 -0.861508 0.474292
rclavicle 3.54085e-015 3.97569e-016
rhumerus -46.7907 -1.84328 -87.3638
rradius 41.3922
rwrist 14.348
rhand 7.97593 -29.2328
rfingers 7.12502
rthumb 33.2041 -56.1897
lclavicle 3.54085e-015 3.97569e-016
lhumerus -43.9212 -3.95395 92.1571
lradius 41.5143
lwrist 0.841372
lhand -1.68688 -21.0156
lfingers 7.12502
lthumb 23.9737 7.50748
rfemur 7.31056 4.98943 18.6654
rtibia -1.43125e-014
rfoot -17.7215 -10.606
rtoes -7.06871
lfemur -4.1684 -5.14785 -9.86377
ltibia 22.3959
lfoot -23.9219 12.8364
ltoes -55.6188
5
root -0.798737 18.6637 6.19396 2.50306 -3.4061 -4.19553
lowerback 3.73552 0.806355 1.27547
upperback -0.915354 1.15824 0.696145
thorax -3.02465 0.560162 -0.0722146
lowerneck -8.4465 -1.27589 0.429851
upperneck 18.2356 -2.26394 2.3262
head 6.9837 -0.863081 0.486586
rclavicle 8.58501e-015 -7.95139e-016
rhumerus -46.7816 -1.89095 -87.3832
rradius 41.3924
rwrist 14.3898
rhand 7.98088 -29.2595
rfingers 7.12502
rthumb 33.2089 -56.2155
lclavicle 8.58501e-015 -7.95139e-016
lhumerus -43.9238 -3.9877 92.1448
lradius 41.5166
lwrist 0.86845
lhand -1.73049 -21.0051
lfingers 7.12502
lthumb 23.9319 7.52354
rfemur 7.30659 5.00115 18.7095
rtibia 0
rfoot -17.7134 -10.5843
rtoes -7.05059
lfemur -4.17793 -5.02205 -9.8044
ltibia 22.3907
lfoot -23.853 12.7846
ltoes -55.6998
6
root -0.797741 18.6633 6.19443 2.4707 -3.42174 -4.16989
lowerback 3.77349 0.803918 1.25853
upperback -0.907591 1.15442 0.684642
thorax -3.03815 0.558399 -0.0748446
lowerneck -8.43148 -1.26558 0.49283
upperneck 18.2222 -2.25696 2.31411
head 6.97592 -0.856812 0.472911
rclavicle -1.23868e-014 1.94809e-014
rhumerus -46.8003 -1.90036 -87.4025
rradius 41.4165
rwrist 14.4209
rhand 8.01638 -29.3925
rfingers 7.12502
rthumb 33.2426 -56.3412
lclavicle -1.23868e-014 1.94809e-014
lhumerus -43.9307 -4.02429 92.1402
lradius 41.5207
lwrist 0.917951
lhand -1.73598 -20.9774
lfingers 7.12502
lthumb 23.9266 7.55185
rfemur 7.33886 5.01674 18.6796
rtibia -2.54444e-014
rfoot -17.705 -10.5815
rtoes -7.01957
lfemur -4.13986 -5.01315 -9.83959
ltibia 22.3855
lfoot -23.8689 12.7865
ltoes -55.6845
7
root -0.797497 18.6624 6.19495 2.43158 -3.42476 -4.09959
lowerback 3.80614 0.798324 1.162
upperback -0.898553 1.14255 0.680343
thorax -3.04907 0.554171 -0.0248808
lowerneck -8.39342 -1.25876 0.56198
upperneck 18.1917 -2.24594 2.25432
head 6.95778 -0.852658 0.443355
rclavicle 1.04983e-014 6.36111e-015
rhumerus -46.8299 -1.88267 -87.3924
rradius 41.4309
rwrist 14.4557
rhand 8.01617 -29.4141
rfingers 7.12502
rthumb 33.2424 -56.3628
lclavicle 1.04983e-014 6.36111e-015
lhumerus -43.9211 -4.00796 92.1438
lradius 41.5145
lwrist 0.949087
lhand -1.68568 -20.9563
lfingers 7.12502
lthumb 23.9748 7.56667
rfemur 7.38067 5.01806 18.6041
rtibia -1.90833e-014
rfoot -17.706 -10.5869
rtoes -7.14533
lfemur -4.09632 -5.0414 -9.92681
ltibia 22.378
lfoot -23.8835 12.8077
ltoes -55.6854
8
root -0.797294 18.6622 6.19568 2.44129 -3.42788 -4.06276
lowerback 3.78669 0.799957 1.11961
upperback -0.900533 1.14234 0.680647
thorax -3.04098 0.55489 -0.000528039
lowerneck -8.34101 -1.2545 0.580947
upperneck 18.1369 -2.23607 2.2295
head 6.93021 -0.849851 0.433451
rclavicle -1.29831e-014 1.07344e-014
rhumerus -46.8381 -1.91005 -87.3575
rradius 41.4122
rwrist 14.5058
rhand 8.01148 -29.3069
rfingers 7.12502
rthumb 33.2379 -56.2566
lclavicle -1.29831e-014 1.07344e-014
lhumerus -43.9058 -4.00058 92.1592
lradius 41.4946
lwrist 0.966211
lhand -1.65921 -20.9577
lfingers 7.12502
lthumb 24.0002 7.56191
rfemur 7.37114 5.01959 18.5616
rtibia 1.59028e-015
rfoot -17.692 -10.5998
rtoes -7.31644
lfemur -4.10375 -5.0133 -9.96882
ltibia 22.369
lfoot -23.8293 12.8272
ltoes -55.7481
9
root -0.79603 18.6628 6.19667 2.47663 -3.43847 -4.0528
lowerback 3.75094 0.805247 1.13198
upperback -0.910424 1.14953 0.680696
thorax -3.03076 0.55828 -0.00738256
lowerneck -8.30331 -1.25471 0.559594
upperneck 18.0897 -2.23335 2.24166
head 6.90863 -0.849829 0.441454
rclavicle -9.19379e-015 7.55382e-015
rhumerus -46.8186 -1.92844 -87.3372
rradius 41.3777
rwrist 14.5412
rhand 8.04287 -29.1877
rfingers 7.12502
rthumb 33.2678 -56.131
lclavicle -9.19379e-015 7.55382e-015
lhumerus -43.8992 -3.99395 92.1703
lradius 41.4704
lwrist 0.948032
lhand -1.68141 -20.9438
lfingers 7.12502
lthumb 23.9789 7.57866
rfemur 7.32983 5.02917 18.5427
rtibia 1.90833e-014
rfoot -17.6728 -10.6118
rtoes -7.16144
lfemur -4.13495 -4.99118 -9.98467
ltibia 22.3689
lfoot -23.8177 12.8442
ltoes -55.7171
10
root -0.794865 18.6625 6.19715 2.46082 -3.43979 -4.08628
lowerback 3.77751 0.806976 1.18542
upperback -0.904544 1.15506 0.688614
thorax -3.03875 0.560099 -0.0298933
lowerneck -8.2861 -1.26688 0.551062
upperneck 18.0595 -2.2509 2.25923
head 6.89631 -0.857871 0.447202
rclavicle -5.86415e-015 -1.11319e-014
rhumerus -46.806 -1.92836 -87.3409
rradius 41.3636
rwrist 14.5441
rhand 8.05805 -29.1116
rfingers 7.12502
rthumb 33.2822 -56.0518
lclavicle -5.86415e-015 -1.11319e-014
lhumerus -43.9026 -3.98148 92.1634
lradius 41.4725
lwrist 0.876735
lhand -1.67201 -20.9204
lfingers 7.12502
lthumb 23.9879 7.60087
rfemur 7.34937 5.03241 18.5769
rtibia -4.77083e-015
rfoot -17.6767 -10.6012
rtoes -6.87102
lfemur -4.11684 -4.97409 -9.95188
ltibia 22.379
lfoot -23.853 12.8132
ltoes -55.6581
11
root -0.794548 18.6618 6.19735 2.41463 -3.43396 -4.12944
lowerback 3.82731 0.800604 1.22372
upperback -0.892205 1.14987 0.712129
thorax -3.05388 0.556968 -0.0275276
lowerneck -8.26681 -1.26979 0.544303
upperneck 18.0563 -2.25399 2.26183
head 6.89199 -0.8598 0.449038
rclavicle -3.39922e-014 1.23246e-014
rhumerus -46.8096 -1.91344 -87.3343
rradius 41.3539
rwrist 14.5253
rhand 8.05557 -29.1099
rfingers 7.12502
rthumb 33.2799 -56.0507
lclavicle -3.39922e-014 1.23246e-014
lhumerus -43.9163 -3.94307 92.1595
lradius 41.4879
lwrist 0.804137
lhand -1.64065 -20.9413
lfingers 7.12502
lthumb 24.018 7.57599
rfemur 7.40895 5.02938 18.6277
rtibia 2.38542e-014
rfoot -17.6977 -10.59
rtoes -6.78866
lfemur -4.06953 -4.98004 -9.90822
ltibia 22.3885
lfoot -23.8841 12.7932
ltoes -55.6559
12
root -0.794506 18.6612 6.19736 2.3918 -3.42574 -4.13504
lowerback 3.84349 0.787928 1.21967
upperback -0.882949 1.13356 0.733346
thorax -3.05411 0.549133 -0.00258757
lowerneck -8.23957 -1.26292 0.49193
upperneck 18.0507 -2.24175 2.29321
head 6.88613 -0.855075 0.469055
rclavicle -9.31803e-015 -1.47101e-014
rhumerus -46.7943 -1.87938 -87.3178
rradius 41.3327
rwrist 14.5124
rhand 8.05473 -29.1379
rfingers 7.12502
rthumb 33.2791 -56.0788
lclavicle -9.31803e-015 -1.47101e-014
lhumerus -43.9177 -3.88127 92.1679
lradius 41.5062
lwrist 0.800291
lhand -1.63638 -20.9153
lfingers 7.12502
lthumb 24.0221 7.60147
rfemur 7.43838 5.02187 18.6367
rtibia 0
rfoot -17.7087 -10.5862
rtoes -6.7248
lfemur -4.05283 -5.00496 -9.90586
ltibia 22.3924
lfoot -23.8671 12.8235
ltoes -55.7096
13
root -0.794094 18.6613 6.1974 2.38519 -3.42196 -4.09079
lowerback 3.83153 0.779701 1.18671
upperback -0.868011 1.12036 0.728086
thorax -3.03258 0.543266 0.0116131
lowerneck -8.25367 -1.26983 0.418761
upperneck 18.0666 -2.2546 2.36879
head 6.89553 -0.859485 0.504354
rclavicle 7.52897e-015 -7.55382e-015
rhumerus -46.7748 -1.84023 -87.324
rradius 41.332
rwrist 14.4835
rhand 8.00953 -29.1724
rfingers 7.12502
rthumb 33.2361 -56.1225
lclavicle 7.52897e-015 -7.55382e-015
lhumerus -43.9141 -3.85271 92.18
lradius 41.5594
lwrist 0.820953
lhand -1.63352 -20.7947
lfingers 7.12502
lthumb 24.0249 7.72166
rfemur 7.44148 5.01658 18.5896
rtibia -5.08889e-014
rfoot -17.6967 -10.5834
rtoes -6.78688
lfemur -4.05808 -4.98572 -9.95232
ltibia 22.3944
lfoot -23.8285 12.8118
ltoes -55.7278
14
root -0.793724 18.6619 6.19742 2.38078 -3.43592 -4.03019
lowerback 3.81281 0.780448 1.13802
upperback -0.855164 1.11793 0.710551
thorax -3.00936 0.542926 0.0214112
lowerneck -8.28356 -1.29778 0.407066
upperneck 18.1063 -2.29503 2.38055
head 6.91436 -0.878006 0.506457
rclavicle 1.90088e-015 -5.1684e-015
rhumerus -46.7645 -1.80072 -87.3528
rradius 41.328
rwrist 14.4643
rhand 7.92457 -29.1594
rfingers 7.12502
rthumb 33.1553 -56.1267
lclavicle 1.90088e-015 -5.1684e-015
lhumerus -43.9186 -3.8669 92.1876
lradius 41.618
lwrist 0.81946
lhand -1.6084 -20.7436
lfingers 7.12502
lthumb 24.0489 7.76964
rfemur 7.44073 5.02832 18.5239
rtibia 1.59028e-015
rfoot -17.6787 -10.5816
rtoes -7.02365
lfemur -4.05556 -4.96642 -10.0195
ltibia 22.3912
lfoot -23.8319 12.7891
ltoes -55.6573
15
root -0.793202 18.6618 6.19696 2.36505 -3.45507 -4.03309
lowerback 3.82734 0.782917 1.15002
upperback -0.84733 1.12201 0.712362
thorax -3.00925 0.544775 0.0161378
lowerneck -8.31549 -1.32651 0.448386
upperneck 18.1505 -2.33091 2.31692
head 6.93341 -0.897087 0.475813
rclavicle -9.62863e-015 1.15295e-014
rhumerus -46.7386 -1.77771 -87.3692
rradius 41.2932
rwrist 14.4825
rhand 7.91402 -29.1162
rfingers 7.12502
rthumb 33.1453 -56.0857
lclavicle -9.62863e-015 1.15295e-014
lhumerus -43.919 -3.89198 92.1859
lradius 41.651
lwrist 0.770359
lhand -1.53021 -20.7919
lfingers 7.12502
lthumb 24.1239 7.71136
rfemur 7.45547 5.0479 18.5285
rtibia 1.27222e-014
rfoot -17.6776 -10.5807
rtoes -7.05191
lfemur -4.02988 -4.98866 -10.0223
ltibia 22.3877
lfoot -23.8705 12.7844
ltoes -55.5623
